HIERARCHY
ROOT Hips
{
	OFFSET 0.000000 0.000000 0.000000
	CHANNELS 6 Xposition Yposition Zposition Xrotation Yrotation Zrotation
	JOINT LeftUpLeg_virtual
	{
		OFFSET 0.000000 0.000000 0.000000
		CHANNELS 3 Xrotation Yrotation Zrotation
		JOINT LeftUpLeg
		{
			OFFSET 13.026900 -6.336304 -1.092800
			CHANNELS 3 Xrotation Yrotation Zrotation
			JOINT LeftLeg
			{
				OFFSET 0.524474 -46.096886 9.782700
				CHANNELS 3 Xrotation Yrotation Zrotation
				JOINT LeftFoot
				{
					OFFSET -0.524474 -53.427422 -12.948200
					CHANNELS 3 Xrotation Yrotation Zrotation
					JOINT LeftToeBase
					{
						OFFSET 0.192200 -14.009700 16.364100
						CHANNELS 3 Xrotation Yrotation Zrotation
						JOINT LeftToe_End
						{
							OFFSET -1.784700 -0.561700 9.474800
							CHANNELS 3 Xrotation Yrotation Zrotation
							End Site
							{
								OFFSET 0 0 0
							}
						}
					}
				}
			}
		}
	}
	JOINT RightUpLeg_virtual
	{
		OFFSET 0.000000 0.000000 0.000000
		CHANNELS 3 Xrotation Yrotation Zrotation
		JOINT RightUpLeg
		{
			OFFSET -12.883000 -6.336304 -1.092800
			CHANNELS 3 Xrotation Yrotation Zrotation
			JOINT RightLeg
			{
				OFFSET -0.524587 -46.096825 9.782800
				CHANNELS 3 Xrotation Yrotation Zrotation
				JOINT RightFoot
				{
					OFFSET 0.524587 -53.427383 -12.948300
					CHANNELS 3 Xrotation Yrotation Zrotation
					JOINT RightToeBase
					{
						OFFSET -0.192200 -14.009700 16.364100
						CHANNELS 3 Xrotation Yrotation Zrotation
						JOINT RightToe_End
						{
							OFFSET 1.784700 -0.561700 9.474800
							CHANNELS 3 Xrotation Yrotation Zrotation
							End Site
							{
								OFFSET 0 0 0
							}
						}
					}
				}
			}
		}
	}
	JOINT Spine_virtual
	{
		OFFSET 0.000000 0.000000 0.000000
		CHANNELS 3 Xrotation Yrotation Zrotation
		JOINT Spine
		{
			OFFSET 0.072000 7.257294 -0.789700
			CHANNELS 3 Xrotation Yrotation Zrotation
			JOINT Spine1
			{
				OFFSET 0.000000 12.508769 -0.658067
				CHANNELS 3 Xrotation Yrotation Zrotation
				JOINT Spine1_split
				{
					OFFSET 0.000000 12.508769 -0.658067
					CHANNELS 3 Xrotation Yrotation Zrotation
					JOINT Spine2
					{
						OFFSET 0.000000 12.508769 -0.658067
						CHANNELS 3 Xrotation Yrotation Zrotation
						JOINT Neck_virtual
						{
							OFFSET 0.000000 0.000000 0.000000
							CHANNELS 3 Xrotation Yrotation Zrotation
							JOINT Neck
							{
								OFFSET 0.000000 14.033295 7.520400
								CHANNELS 3 Xrotation Yrotation Zrotation
								JOINT Head
								{
									OFFSET 0.000000 8.198502 5.703100
									CHANNELS 3 Xrotation Yrotation Zrotation
									JOINT HeadTop_End
									{
										OFFSET 0.000000 17.760803 13.332701
										CHANNELS 3 Xrotation Yrotation Zrotation
										End Site
										{
											OFFSET 0 0 0
										}
									}
								}
							}
						}
						JOINT LeftShoulder_virtual
						{
							OFFSET 0.000000 0.000000 0.000000
							CHANNELS 3 Xrotation Yrotation Zrotation
							JOINT LeftShoulder
							{
								OFFSET 6.292450 5.785301 -0.669000
								CHANNELS 3 Xrotation Yrotation Zrotation
								JOINT LeftShoulder_split
								{
									OFFSET 6.292450 5.785301 -0.669000
									CHANNELS 3 Xrotation Yrotation Zrotation
									JOINT LeftArm
									{
										OFFSET 13.907140 -6.093903 1.965100
										CHANNELS 3 Xrotation Yrotation Zrotation
										JOINT LeftForeArm
										{
											OFFSET 34.140198 0.000000 0.000000
											CHANNELS 3 Xrotation Yrotation Zrotation
											JOINT LeftHand
											{
												OFFSET 40.960209 0.000000 0.000000
												CHANNELS 3 Xrotation Yrotation Zrotation
												End Site
												{
													OFFSET 0 0 0
												}
											}
										}
									}
								}
							}
						}
						JOINT RightShoulder_virtual
						{
							OFFSET 0.000000 0.000000 0.000000
							CHANNELS 3 Xrotation Yrotation Zrotation
							JOINT RightShoulder
							{
								OFFSET -6.292450 5.785301 -0.669000
								CHANNELS 3 Xrotation Yrotation Zrotation
								JOINT RightShoulder_split
								{
									OFFSET -6.292450 5.785301 -0.669000
									CHANNELS 3 Xrotation Yrotation Zrotation
									JOINT RightArm
									{
										OFFSET -13.907140 -6.093903 1.965100
										CHANNELS 3 Xrotation Yrotation Zrotation
										JOINT RightForeArm
										{
											OFFSET -34.140198 0.000000 0.000000
											CHANNELS 3 Xrotation Yrotation Zrotation
											JOINT RightHand
											{
												OFFSET -40.960209 0.000000 0.000000
												CHANNELS 3 Xrotation Yrotation Zrotation
												End Site
												{
													OFFSET 0 0 0
												}
											}
										}
									}
								}
							}
						}
					}
				}
			}
		}
	}
}
MOTION
Frames: 9
Frame Time: 0.03333333
-23.719122 95.124832 -23.709087 0.000000 0.000000 0.000000 36.190123 11.590525 -2.913977 -60.784592 -11.404906 22.299039 30.226118 -11.201982 2.505102 8.488463 15.321986 -32.797182 6.472309 -4.924026 0.775483 0.000000 0.000000 0.000000 37.390624 10.740180 -3.075447 -59.522087 -6.435817 -18.222175 44.312635 8.446569 -5.841899 -10.473682 -16.649404 27.626867 4.504908 7.020839 -3.128823 0.000000 0.000000 0.000000 38.184859 15.173655 -6.222286 14.122797 1.327904 2.666696 4.914477 1.180408 1.420413 0.141399 -0.303184 0.066251 0.000000 0.000000 0.000000 5.094589 3.954754 1.499239 -2.740124 -1.566200 -0.083287 -9.890743 -56.171961 -7.022342 0.000000 0.000000 0.000000 3.462300 2.427318 -0.084123 1.177564 -22.336824 -4.450564 3.450720 2.955228 -6.209745 19.704838 -14.185242 -49.494488 -4.504372 -69.140099 -1.400756 0.000000 0.000000 0.000000 6.070854 3.294518 1.704757 0.674369 23.391673 9.233466 0.516763 1.019041 4.088191 13.801596 39.430481 11.331418 -20.719531 30.421034 10.593065 0.000000 0.000000 0.000000 
-22.667782 93.334251 -23.736683 0.000000 0.000000 0.000000 38.431292 12.281269 -2.784545 -64.338039 -11.497372 21.215686 32.771535 -11.789305 2.798253 7.961034 14.170085 -32.614338 6.146113 -4.879094 0.974218 0.000000 0.000000 0.000000 39.663008 10.739064 -2.663427 -63.008604 -5.697689 -19.437511 46.375287 9.194425 -6.414894 -10.395012 -16.345088 28.852789 4.154488 7.320863 -3.533439 0.000000 0.000000 0.000000 40.605560 15.375369 -5.926540 14.562025 1.884600 3.038612 5.103053 1.381048 1.441957 0.102819 -0.265019 0.065307 0.000000 0.000000 0.000000 5.361834 4.106318 1.472456 -4.111532 -1.598356 -0.163777 -12.819887 -56.256631 -9.677110 0.000000 0.000000 0.000000 3.691727 2.608529 -0.054672 1.265271 -23.369501 -4.032274 3.512458 2.955414 -6.391292 19.601707 -14.675957 -49.128673 -6.972616 -70.402359 -3.676885 0.000000 0.000000 0.000000 6.238405 3.441538 1.713795 1.371588 24.178199 8.068205 0.106271 1.193742 3.803591 10.700133 39.068907 9.611891 -21.840858 31.086773 10.841423 0.000000 0.000000 0.000000 
-21.508034 91.528114 -23.568401 0.000000 0.000000 0.000000 40.639445 13.264905 -2.538604 -67.736325 -11.375314 19.956100 35.044932 -12.306158 3.034477 7.204653 13.015811 -32.127649 5.792803 -4.845536 1.169657 0.000000 0.000000 0.000000 41.722610 11.043260 -2.119157 -66.240042 -5.017751 -21.008726 48.834241 9.992255 -7.046226 -10.694200 -16.149294 30.196055 3.947543 7.687709 -4.022578 0.000000 0.000000 0.000000 43.012037 15.963624 -5.535735 14.933087 2.363044 3.329042 5.332914 1.647360 1.424374 0.082550 -0.253797 0.055666 0.000000 0.000000 0.000000 5.657441 4.331926 1.425645 -5.323883 -1.681015 0.033751 -16.202264 -56.681807 -12.553032 0.000000 0.000000 0.000000 3.943614 2.849585 -0.041421 1.332166 -24.362224 -3.564209 3.795282 2.607166 -6.473448 20.347272 -16.155412 -49.042025 -9.328318 -71.386897 -5.910820 0.000000 0.000000 0.000000 6.447711 3.659620 1.695761 2.055203 24.787327 7.032399 -0.450715 1.302015 3.747144 6.524418 38.426736 8.630977 -22.737988 31.648248 10.885131 0.000000 0.000000 0.000000 
-20.290972 89.546379 -23.233906 0.000000 0.000000 0.000000 42.679947 14.485038 -2.191492 -71.011373 -11.240544 18.591971 37.299277 -12.862451 3.210857 6.347871 11.921403 -31.558664 5.366694 -4.805465 1.282158 0.000000 0.000000 0.000000 43.558452 11.785530 -1.539616 -69.115729 -4.287953 -22.839311 51.714426 10.726010 -7.719418 -11.634971 -16.292450 31.328298 4.202448 8.076243 -4.484260 0.000000 0.000000 0.000000 45.268018 16.921304 -5.084077 15.281372 2.740178 3.536894 5.655358 1.968203 1.370776 0.072689 -0.262970 0.051089 0.000000 0.000000 0.000000 6.005945 4.612626 1.366961 -6.386862 -1.812834 0.523721 -19.991077 -57.443107 -15.615768 0.000000 0.000000 0.000000 4.249568 3.134834 -0.049282 1.391997 -25.175124 -2.988070 4.196753 2.192813 -6.412924 21.617491 -18.158312 -49.138840 -11.302624 -72.144092 -7.802683 0.000000 0.000000 0.000000 6.731923 3.923633 1.647833 2.682616 25.271714 6.189761 -1.022300 1.276292 3.965746 2.046560 37.550256 7.748597 -23.555388 32.520293 10.980519 0.000000 0.000000 0.000000 
-19.097641 87.268860 -22.818615 0.000000 0.000000 0.000000 44.432819 15.918461 -1.769028 -74.209438 -11.251908 17.183006 39.843697 -13.426799 3.323697 5.338555 11.015569 -30.939992 4.909577 -4.751413 1.277163 0.000000 0.000000 0.000000 45.199726 13.022568 -1.028018 -71.544087 -3.354779 -24.774343 55.072068 11.339408 -8.439276 -13.124238 -16.861946 32.197788 4.493190 8.460176 -4.772660 0.000000 0.000000 0.000000 47.319827 18.130443 -4.608337 15.654551 2.997652 3.689589 6.112322 2.318913 1.294769 0.076150 -0.285386 0.058900 0.000000 0.000000 0.000000 6.430840 4.913394 1.293632 -7.407270 -1.973013 1.269272 -24.180859 -58.345443 -18.829085 0.000000 0.000000 0.000000 4.639753 3.424558 -0.067549 1.479955 -25.696669 -2.187312 4.545561 1.877954 -6.251562 22.960905 -20.122610 -49.308693 -12.916268 -72.739261 -9.310815 0.000000 0.000000 0.000000 7.132590 4.192428 1.583469 3.228981 25.707773 5.547158 -1.553799 1.115689 4.428830 -1.879645 36.630086 6.169970 -24.450110 33.871192 11.403400 0.000000 0.000000 0.000000 
-17.933317 84.690414 -22.325809 0.000000 0.000000 0.000000 45.895145 17.465414 -1.328831 -77.340875 -11.514273 15.812921 42.830996 -14.061876 3.407302 4.202418 10.316525 -30.368459 4.496010 -4.672574 1.162643 0.000000 0.000000 0.000000 46.658767 14.587592 -0.628634 -73.491312 -2.175610 -26.692617 58.951725 11.832872 -9.211736 -14.820375 -17.856590 32.984920 4.280285 8.826756 -4.759546 0.000000 0.000000 0.000000 49.158265 19.401974 -4.142826 16.088832 3.124854 3.828793 6.720957 2.671708 1.213441 0.106606 -0.311217 0.079617 0.000000 0.000000 0.000000 6.971556 5.194599 1.226500 -8.512449 -2.127774 2.249568 -28.704929 -59.130129 -22.138221 0.000000 0.000000 0.000000 5.152342 3.683912 -0.080478 1.603965 -25.824882 -1.165036 4.722035 1.847274 -6.064386 23.879916 -21.724540 -49.548873 -14.154318 -73.205790 -10.378636 0.000000 0.000000 0.000000 7.683940 4.435071 1.516530 3.693888 26.217111 5.084649 -2.075995 0.804578 5.050478 -4.851758 35.716340 3.522878 -25.436357 35.317614 12.187115 0.000000 0.000000 0.000000 
-16.835468 81.868233 -21.763630 0.000000 0.000000 0.000000 47.131874 19.086499 -0.981930 -80.364306 -11.968252 14.623094 46.121211 -14.736779 3.443247 2.942799 9.765089 -29.899857 4.072711 -4.573177 1.015996 0.000000 0.000000 0.000000 47.929384 16.216049 -0.308824 -74.943800 -0.787632 -28.463845 63.070739 12.215565 -10.026200 -16.607241 -19.256877 33.747411 3.596441 9.151823 -4.411101 0.000000 0.000000 0.000000 50.726531 20.666986 -3.711225 16.589715 3.124482 4.001691 7.468410 2.994600 1.142112 0.121959 -0.327825 0.098108 0.000000 0.000000 0.000000 7.633629 5.423002 1.185362 -9.754280 -2.282112 3.421119 -33.299815 -59.596460 -25.337671 0.000000 0.000000 0.000000 5.807499 3.896955 -0.079808 1.738722 -25.514085 -0.037007 4.793589 1.932917 -5.737163 24.169120 -23.002629 -49.839187 -14.900681 -73.593936 -10.948333 0.000000 0.000000 0.000000 8.381880 4.637061 1.460465 4.092809 26.876721 4.718498 -2.497312 0.573523 5.419566 -7.125645 34.838824 -0.005343 -26.523020 36.332939 13.245600 0.000000 0.000000 0.000000 
-15.833531 78.981766 -21.155079 0.000000 0.000000 0.000000 48.234970 20.660497 -0.741822 -83.219510 -12.517652 13.691848 49.535421 -15.481467 3.482281 1.699506 9.278122 -29.592795 3.542128 -4.467663 0.931094 0.000000 0.000000 0.000000 48.994347 17.719304 -0.040439 -75.898893 0.660653 -30.059171 67.211350 12.461383 -10.825024 -18.580029 -21.004259 34.306459 2.753349 9.420154 -3.745257 0.000000 0.000000 0.000000 52.140131 21.882125 -3.374788 17.117055 3.014175 4.223570 8.324442 3.272774 1.078414 0.111727 -0.358588 0.101040 0.000000 0.000000 0.000000 8.387944 5.597321 1.174600 -11.155513 -2.474883 4.690617 -37.579199 -59.699064 -28.175633 0.000000 0.000000 0.000000 6.601787 4.060287 -0.071018 1.869706 -24.869455 1.108084 4.880533 1.949574 -5.363498 23.850763 -24.178952 -50.239074 -15.327684 -73.974644 -11.236314 0.000000 0.000000 0.000000 9.213597 4.807810 1.427254 4.455864 27.722811 4.402506 -3.000391 0.403128 5.590938 -9.268620 33.974420 -3.866313 -27.630198 36.563652 14.398097 0.000000 0.000000 0.000000 
-14.932362 76.247612 -20.466328 0.000000 0.000000 0.000000 49.284849 22.074774 -0.635084 -85.811778 -13.056736 13.043887 52.796123 -16.335145 3.582453 0.597652 8.816764 -29.497852 2.920794 -4.374444 0.979327 0.000000 0.000000 0.000000 49.881807 18.844671 0.268433 -76.417249 2.037468 -31.466292 71.131919 12.546649 -11.518624 -20.665053 -22.977057 34.613292 1.943998 9.643250 -2.878730 0.000000 0.000000 0.000000 53.457691 23.011616 -3.145275 17.602308 2.814227 4.492609 9.232505 3.498152 1.022945 0.096497 -0.383755 0.079063 0.000000 0.000000 0.000000 9.191969 5.727412 1.199507 -12.637226 -2.717887 5.977140 -41.201357 -59.593278 -30.517907 0.000000 0.000000 0.000000 7.479113 4.185930 -0.065330 1.976858 -24.017276 2.131880 5.128456 1.673588 -4.919922 22.918131 -25.468990 -50.837743 -15.341645 -74.310737 -11.254367 0.000000 0.000000 0.000000 10.120394 4.953702 1.411263 4.806405 28.679285 4.070461 -3.531307 0.467316 5.521972 -11.955695 33.104663 -7.233357 -28.784726 36.150224 15.531440 0.000000 0.000000 0.000000 
